<svg id="Group_52" data-name="Group 52" xmlns="http://www.w3.org/2000/svg" width="15.739" height="15.716" viewBox="0 0 15.739 15.716">
  <path id="Path_112" data-name="Path 112" d="M420.947,158.2a4.759,4.759,0,0,0,.548-2.069c.024-.512.025-2.023-.84-1.678a6.029,6.029,0,0,0-1.863,1.522,18.121,18.121,0,0,0-2.548,4.153.313.313,0,0,1-.463-.386,12.994,12.994,0,0,1,.86-1.661c.765-1.383,2.439-4.3,4.034-4.666,2.4-.552,1.881,4.046,1.319,5.3-.279.624-.893,1.339-1.647.941-.494-.26-.792-1.483-.852-2.023-.044-.395.081-.526.487-.624.659-.162.788.769.964,1.19" transform="translate(-414.833 -148.78)" fill="#fff"/>
  <path id="Path_113" data-name="Path 113" d="M424.958,155a4.766,4.766,0,0,0-.835,1.971c-.1.5-.31,2,.6,1.78a6.016,6.016,0,0,0,2.059-1.245,18.141,18.141,0,0,0,3.109-3.752.313.313,0,0,1,.4.447,13.013,13.013,0,0,1-1.085,1.524c-.953,1.261-3.021,3.912-4.653,4.05-2.458.207-1.292-4.271-.558-5.435.366-.579,1.074-1.2,1.765-.7.451.326.574,1.579.557,2.123-.012.4-.155.509-.57.549-.676.067-.672-.872-.788-1.314" transform="translate(-415.271 -148.785)" fill="#fff"/>
  <path id="Path_111" data-name="Path 111" d="M414.774,156.345a7.869,7.869,0,1,1,7.858,7.858,7.7,7.7,0,0,1-7.858-7.858m15.211,0c0-3.874-3.17-6.8-7.352-6.8-4.16,0-7.33,2.927-7.33,6.8s3.17,6.8,7.33,6.8c4.182,0,7.352-2.927,7.352-6.8" transform="translate(-414.774 -148.487)" fill="#fff"/>
</svg>